<svg width="809" height="364" viewBox="0 0 809 364" fill="none" xmlns="http://www.w3.org/2000/svg">
<rect width="809" height="364" fill="#DFDFE4"/>
<path d="M444.548 220.183L466 241.635L386.903 320.833L344 277.879L365.452 256.428L386.903 277.879L444.548 220.183ZM444.548 234.417L386.903 292.163L365.452 270.966L358.284 277.879L386.903 306.448L451.716 241.635L444.548 234.417Z" fill="#0FA958"/>
<path d="M205 87V52H240V57H215V67H235V72H215V87H205ZM250 87V82H245V67H250V62H275V67H280V82H275V87H250ZM255 82H270V67H255V82ZM300 67H305V72H300V87H290V62H300V67ZM320 62V67H305V62H320ZM325 87V62H355V67H360V87H350V67H345V87H335V67H330V87H325ZM370 87V82H365V62H375V82H390V62H400V87H370ZM410 87V82H420V57H415V52H430V82H440V87H410ZM470 57H465V52H470V57ZM480 67V87H450V82H445V77H450V72H470V67H450V62H460V57H465V62H475V67H480ZM470 77H455V82H470V77ZM500 67H505V72H500V87H490V62H500V67ZM520 62V67H505V62H520ZM540 57V52H550V57H540ZM530 87V82H540V67H535V62H550V82H560V87H530ZM570 87V82H565V67H570V62H595V67H600V82H595V87H570ZM575 82H590V67H575V82ZM190 142V137H185V122H190V117H215V122H220V132H195V137H215V142H190ZM195 127H210V122H195V127ZM225 142V117H255V122H260V142H250V122H235V142H225ZM280 142V137H275V132H270V117H280V132H290V117H300V132H295V137H290V142H280ZM320 112V107H330V112H320ZM310 142V137H320V122H315V117H330V137H340V142H310ZM350 142V137H345V132H350V127H370V122H350V117H375V122H380V142H350ZM355 137H370V132H355V137ZM390 142V137H385V122H390V117H410V107H420V142H390ZM395 137H410V122H395V137ZM430 142V137H425V122H430V117H455V122H460V137H455V142H430ZM435 137H450V122H435V137ZM510 142V137H505V122H510V117H540V122H515V137H540V142H510ZM550 142V137H545V122H550V117H575V122H580V137H575V142H550ZM555 137H570V122H555V137ZM585 142V117H615V122H620V142H610V122H605V142H595V122H590V142H585ZM265 197V192H290V187H270V182H265V177H270V172H295V177H275V182H295V187H300V192H295V197H265ZM310 197V192H305V172H315V192H330V172H340V197H310ZM350 197V192H345V177H350V172H380V177H355V192H380V197H350ZM390 197V192H385V177H390V172H415V177H420V187H395V192H415V197H390ZM395 182H410V177H395V182ZM425 197V192H450V187H430V182H425V177H430V172H455V177H435V182H455V187H460V192H455V197H425ZM465 197V192H490V187H470V182H465V177H470V172H495V177H475V182H495V187H500V192H495V197H465ZM510 197V192H505V177H510V172H535V177H540V192H535V197H510ZM515 192H530V177H515V192Z" fill="#023047"/>
</svg>
